<svg width="25" height="25" viewBox="0 0 25 25" fill="none" xmlns="http://www.w3.org/2000/svg">
<path d="M11.2253 3.83395C11.5922 3.0911 12.6515 3.0911 13.0184 3.83395L15.0106 7.86717C15.1562 8.16193 15.4374 8.36629 15.7627 8.41381L20.2183 9.06461C21.0384 9.1844 21.3652 10.1926 20.7712 10.7707L17.5496 13.9064C17.3136 14.1362 17.2058 14.4675 17.2615 14.7921L18.0217 19.2215C18.1619 20.0384 17.3046 20.6614 16.5709 20.2759L12.587 18.1822C12.2958 18.0292 11.9479 18.0292 11.6566 18.1822L7.67274 20.2759C6.93907 20.6614 6.08175 20.0384 6.22195 19.2215L6.98215 14.7921C7.03788 14.4675 6.93012 14.1362 6.69405 13.9064L3.47247 10.7707C2.87853 10.1926 3.2053 9.1844 4.02543 9.06461L8.481 8.41381C8.8063 8.36629 9.08746 8.16193 9.23305 7.86717L11.2253 3.83395Z" fill="#5CCAAB"/>
</svg>
